<?xml version="1.0" encoding="iso-8859-1"?>
<!-- Generator: Adobe Illustrator 21.0.0, SVG Export Plug-In . SVG Version: 6.00 Build 0)  -->
<svg version="1.1" id="Layer_1" xmlns="http://www.w3.org/2000/svg" xmlns:xlink="http://www.w3.org/1999/xlink" x="0px" y="0px"
	 viewBox="0 0 24 24" enable-background="new 0 0 24 24" xml:space="preserve">
<g>
	<path fill="#69B342" d="M19,22c0,1.1045532,0.8954468,2,2,2s2-0.8954468,2-2c0-0.5898438-0.2601318-1.114624-0.6663208-1.4806519
		C22.4298096,20.3657227,22.5,20.1945801,22.5,20c0-0.3759766-0.2159424-0.6912231-0.522583-0.8619995
		c-0.0527344-0.5631104-0.4699707-1.0001831-1.0194092-1.0960083C20.8555908,17.4547119,20.3665771,17,19.75,17
		c-0.6903687,0-1.25,0.5596313-1.25,1.25"/>
	<path fill="#69B342" d="M5,18.25c0-0.4142456-0.3358154-0.75-0.75-0.75c-0.3461914,0-0.624939,0.2393799-0.7113037,0.5582886
		C3.4434204,18.0350342,3.352417,18,3.25,18c-0.6506348,0-1.1679688,0.5028687-1.227417,1.1380005
		C1.7159424,19.3087769,1.5,19.6240234,1.5,20c0,0.0039063,0.0021362,0.0070801,0.0021973,0.0109863
		C1.1908569,20.4278564,1,20.9396362,1,21.5C1,22.8806763,2.1192627,24,3.5,24S6,22.8806763,6,21.5"/>
	<path fill="#4D4D4D" d="M12,0C7.5888672,0,4,3.5888672,4,8v13.5h16V8C20,3.5888672,16.4111328,0,12,0z"/>
	<rect x="3" y="21" fill="#333333" width="18" height="3"/>
	<rect x="3" y="21" opacity="0.1" fill="#FFFFFF" width="18" height="0.25"/>
	<rect x="3" y="23.75" opacity="0.2" width="18" height="0.25"/>
	<g id="XMLID_1390_">
		<path fill="#CCCCCC" d="M10,14H9v-1.5C9,12.2241211,8.7753906,12,8.5,12H8v2H7V9h1.5C9.3271484,9,10,9.6728516,10,10.5
			c0,0.3837891-0.1445313,0.734375-0.3828125,1C9.8554688,11.765625,10,12.1162109,10,12.5V14z M8,11h0.5
			C8.7753906,11,9,10.7758789,9,10.5S8.7753906,10,8.5,10H8V11z"/>
	</g>
	<g id="XMLID_1391_">
		<path fill="#CCCCCC" d="M15,14h-1V9h1.5c0.8271484,0,1.5,0.6728516,1.5,1.5S16.3271484,12,15.5,12H15V14z M15,11h0.5
			c0.2753906,0,0.5-0.2241211,0.5-0.5S15.7753906,10,15.5,10H15V11z"/>
	</g>
	<g id="XMLID_1392_">
		<rect x="11.5" y="9" fill="#CCCCCC" width="1" height="5"/>
	</g>
	<polygon fill="#333333" points="20,13 17,15 16.5,17.5 15,19 17.5,18 18,16 20,14.7999878 	"/>
	<path fill="#333333" d="M4.7141113,4.7141113L6,6l2-0.5L9,8V4L6.5,4.5L5.5701904,3.2602539
		C5.2364502,3.711731,4.9481812,4.1972656,4.7141113,4.7141113z"/>
	<path opacity="0.2" fill="#FFFFFF" d="M12,0C7.5888672,0,4,3.5888672,4,8v0.25c0-4.4111328,3.5888672-8,8-8s8,3.5888672,8,8V8
		C20,3.5888672,16.4111328,0,12,0z"/>
	<linearGradient id="SVGID_1_" gradientUnits="userSpaceOnUse" x1="17.2692413" y1="16.7307587" x2="20.7692413" y2="20.2307587">
		<stop  offset="0" style="stop-color:#000000;stop-opacity:0.1"/>
		<stop  offset="1" style="stop-color:#000000;stop-opacity:0"/>
	</linearGradient>
	<polygon fill="url(#SVGID_1_)" points="20,21 20,15 19.9230957,14.8461304 18,16 17.5,18 15,19 17,21 	"/>
	<linearGradient id="SVGID_2_" gradientUnits="userSpaceOnUse" x1="2.5675249" y1="9.2994604" x2="24.3854771" y2="19.4733391">
		<stop  offset="0" style="stop-color:#FFFFFF;stop-opacity:0.2"/>
		<stop  offset="1" style="stop-color:#FFFFFF;stop-opacity:0"/>
	</linearGradient>
	<path fill="url(#SVGID_2_)" d="M22.3336792,20.5193481C22.4298096,20.3657227,22.5,20.1945801,22.5,20
		c0-0.3759766-0.2159424-0.6912231-0.522583-0.8619995c-0.0527344-0.5631104-0.4699707-1.0001831-1.0194092-1.0960083
		C20.8703003,17.5391846,20.4918823,17.1524658,20,17.0461426V8c0-4.4111328-3.5888672-8-8-8S4,3.5888672,4,8v9.545166
		c-0.225769,0.083374-0.3970337,0.2758179-0.4613037,0.5131226C3.4434204,18.0350342,3.352417,18,3.25,18
		c-0.6506348,0-1.1679688,0.5028687-1.227417,1.1380005C1.7159424,19.3087769,1.5,19.6240234,1.5,20
		c0,0.0039063,0.0021362,0.0070801,0.0021973,0.0109863C1.1908569,20.4278564,1,20.9396362,1,21.5
		c0,1.2094116,0.8588867,2.2178955,2,2.449585V24h18c1.1045532,0,2-0.8954468,2-2
		C23,21.4101563,22.7398682,20.885376,22.3336792,20.5193481z"/>
</g>
<g>
</g>
<g>
</g>
<g>
</g>
<g>
</g>
<g>
</g>
<g>
</g>
<g>
</g>
<g>
</g>
<g>
</g>
<g>
</g>
<g>
</g>
<g>
</g>
<g>
</g>
<g>
</g>
<g>
</g>
</svg>
